<?xml version="1.0" standalone="no"?>
<!DOCTYPE svg PUBLIC "-//W3C//DTD SVG 20010904//EN"
 "http://www.w3.org/TR/2001/REC-SVG-20010904/DTD/svg10.dtd">
<svg version="1.0" xmlns="http://www.w3.org/2000/svg"
 width="1024.000000pt" height="1024.000000pt" viewBox="0 0 1024.000000 1024.000000"
 preserveAspectRatio="xMidYMid meet">
<metadata>
Created by potrace 1.14, written by Peter Selinger 2001-2017
</metadata>
<g transform="translate(0.000000,1024.000000) scale(0.100000,-0.100000)"
fill="#000000" stroke="none">
<path d="M0 5120 l0 -5120 5120 0 5120 0 0 5120 0 5120 -5120 0 -5120 0 0
-5120z m5177 3473 c17 -16 104 -104 194 -198 90 -93 291 -303 448 -465 157
-162 468 -484 691 -715 223 -231 544 -564 715 -740 632 -653 902 -933 1021
-1055 145 -150 154 -162 154 -218 0 -37 -6 -50 -47 -95 -52 -56 -387 -406
-1289 -1347 -313 -327 -666 -697 -784 -821 -970 -1020 -1105 -1160 -1142
-1171 -58 -17 -86 -3 -178 90 -113 115 -613 624 -981 997 l-295 300 -314 195
c-172 107 -317 197 -321 200 -15 10 -89 274 -89 317 0 24 7 54 15 67 15 22 6
31 -348 392 -851 868 -807 819 -807 879 0 17 9 45 20 63 11 18 147 164 303
325 263 273 643 668 1262 1312 142 148 372 387 510 530 138 143 450 468 693
723 l443 462 47 0 c38 0 54 -6 79 -27z m-887 -143 c0 -5 -4 -10 -10 -10 -5 0
-10 5 -10 10 0 6 5 10 10 10 6 0 10 -4 10 -10z m2101 -353 c-5 -5 -17 -7 -26
-3 -14 5 -15 9 -5 21 10 12 16 13 27 4 9 -8 10 -16 4 -22z m1528 -1731 c15
-18 4 -46 -19 -46 -28 0 -45 27 -30 45 16 19 34 19 49 1z m481 -626 c0 -5 -4
-10 -10 -10 -5 0 -10 5 -10 10 0 6 5 10 10 10 6 0 10 -4 10 -10z m-100 -1110
c0 -11 -7 -20 -15 -20 -8 0 -15 9 -15 20 0 11 7 20 15 20 8 0 15 -9 15 -20z
m150 -66 c0 -14 -21 -19 -33 -7 -9 9 13 34 24 27 5 -3 9 -12 9 -20z m-6555
-14 c0 -22 -29 -18 -33 3 -3 14 1 18 15 15 10 -2 18 -10 18 -18z m269 -441
c-8 -14 -34 -11 -34 4 0 8 3 17 7 20 9 9 34 -13 27 -24z m5377 -314 c-1 -15
-24 -12 -29 3 -3 9 2 13 12 10 10 -1 17 -7 17 -13z m-5041 -185 c0 -5 -4 -10
-10 -10 -5 0 -10 5 -10 10 0 6 5 10 10 10 6 0 10 -4 10 -10z m4980 -290 c0
-11 -6 -20 -14 -20 -18 0 -29 16 -21 30 11 18 35 11 35 -10z m-4690 -80 c0
-11 -6 -20 -14 -20 -18 0 -29 16 -21 30 11 18 35 11 35 -10z m410 -300 c0 -5
-2 -10 -4 -10 -3 0 -8 5 -11 10 -3 6 -1 10 4 10 6 0 11 -4 11 -10z m490 -630
c0 -5 -4 -10 -10 -10 -5 0 -10 5 -10 10 0 6 5 10 10 10 6 0 10 -4 10 -10z"/>
<path d="M5044 8407 c-180 -192 -1451 -1518 -2414 -2518 -273 -283 -533 -553
-578 -601 l-83 -86 548 -562 548 -562 20 28 c11 16 32 40 47 54 18 17 31 42
37 73 14 76 51 103 68 50 14 -43 8 -91 -14 -116 -38 -41 -203 -298 -203 -316
0 -10 6 -40 14 -67 8 -27 20 -68 26 -91 6 -24 14 -43 18 -43 5 0 23 21 41 46
47 68 61 45 23 -39 l-30 -66 66 -44 c178 -118 693 -430 699 -423 8 8 -15 36
-140 171 -64 71 -116 129 -115 131 2 1 71 11 153 23 83 12 160 24 173 26 18 5
37 -10 100 -76 42 -44 78 -84 80 -88 1 -4 -26 -29 -60 -56 -84 -65 -128 -106
-128 -121 0 -19 133 63 315 195 89 64 183 131 209 149 31 21 46 39 44 50 -3
17 -70 73 -290 244 l-117 91 -11 71 c-6 39 -15 88 -20 109 -5 22 -4 37 1 35 4
-2 77 -64 160 -138 142 -127 157 -143 243 -275 51 -77 96 -145 100 -152 11
-20 -373 -298 -556 -402 -32 -18 -58 -33 -58 -34 0 -1 66 -69 148 -152 81 -82
338 -345 572 -583 l425 -433 60 63 c33 35 182 191 330 348 149 156 412 433
585 615 174 181 358 375 410 430 52 55 232 244 400 420 1003 1050 1230 1287
1293 1352 l70 72 -294 303 c-161 167 -366 377 -454 468 -88 91 -282 291 -430
445 -148 154 -344 357 -435 450 -91 94 -282 291 -425 440 -143 148 -395 409
-560 580 -165 171 -357 370 -426 442 l-127 132 -58 -62z m71 -237 c3 -5 -1
-10 -9 -10 -9 0 -16 5 -16 10 0 6 4 10 9 10 6 0 13 -4 16 -10z m-137 -252 c-6
-18 -28 -21 -28 -4 0 9 7 16 16 16 9 0 14 -5 12 -12z m560 -255 c-5 -25 -28
-28 -28 -4 0 12 6 21 16 21 9 0 14 -7 12 -17z m28 -132 c44 -32 304 -294 304
-305 0 -12 66 -335 94 -461 l24 -109 -39 -122 c-21 -67 -39 -129 -39 -138 0
-9 -17 -35 -38 -59 -52 -56 -136 -169 -270 -362 -126 -182 -144 -203 -175
-209 -55 -12 -287 -17 -305 -7 -39 21 -299 388 -329 466 -23 56 -58 136 -170
388 l-43 97 14 186 c11 134 19 193 31 210 29 44 198 237 304 346 l104 108 247
0 247 0 39 -29z m-1306 -455 c0 -8 -5 -18 -11 -22 -14 -8 -33 11 -25 25 10 16
36 13 36 -3z m2130 -321 c0 -8 -9 -15 -20 -15 -20 0 -26 11 -13 23 12 13 33 7
33 -8z m-2116 -167 c14 -23 -3 -52 -32 -56 -29 -4 -51 40 -32 63 16 20 49 16
64 -7z m2276 -2 c0 -3 -4 -8 -10 -11 -5 -3 -10 -1 -10 4 0 6 5 11 10 11 6 0
10 -2 10 -4z m-417 -100 c72 -30 177 -75 232 -99 l99 -44 68 -129 c72 -138 72
-149 1 -119 -21 9 -85 32 -143 52 -117 39 -169 39 -246 2 -53 -25 -154 -131
-187 -194 -43 -87 -88 -234 -97 -318 -8 -77 -6 -89 26 -196 47 -155 60 -185
79 -177 38 14 3 -20 -151 -148 -91 -76 -170 -134 -174 -129 -4 4 -51 63 -104
131 l-96 122 -199 0 -199 0 -77 -105 c-42 -58 -79 -105 -83 -104 -4 0 -47 54
-96 120 l-89 120 22 242 c27 285 32 316 77 414 l35 75 36 -48 c20 -27 54 -69
76 -92 33 -37 38 -48 33 -75 -4 -18 -9 -64 -12 -103 l-6 -71 52 -96 c79 -148
60 -136 240 -143 l155 -6 86 133 c116 179 140 225 189 351 49 127 112 220 271
399 61 68 119 136 129 150 l19 26 -70 33 c-47 23 -68 39 -64 48 3 7 5 18 5 23
0 17 31 9 163 -45z m-1397 -372 c19 -9 34 -19 34 -21 0 -3 -20 -60 -44 -127
-24 -66 -49 -148 -56 -181 -17 -82 -22 -89 -82 -115 -49 -21 -58 -22 -118 -11
-36 7 -91 24 -123 38 -31 14 -60 24 -63 21 -9 -10 166 -165 213 -188 35 -17
55 -21 89 -16 47 6 58 -6 23 -24 -49 -27 -151 18 -254 113 l-61 55 -22 -32
c-12 -18 -22 -37 -22 -43 0 -20 50 -72 110 -114 77 -54 94 -79 74 -108 -8 -11
-11 -21 -6 -21 4 0 15 -15 24 -32 23 -49 99 -138 130 -154 16 -8 39 -12 53 -8
14 3 25 2 25 -4 0 -13 -85 -90 -225 -203 -71 -57 -115 -100 -115 -111 0 -44
-30 -89 -79 -119 -32 -20 -69 -57 -101 -100 -45 -63 -53 -69 -85 -69 -19 0
-35 3 -35 6 0 3 23 31 51 61 27 31 61 77 73 102 18 35 33 49 60 59 43 16 63
42 72 99 5 31 12 43 28 47 11 3 66 42 121 87 55 44 111 89 123 100 l24 18 -88
95 -88 95 -31 -23 c-16 -12 -77 -49 -135 -81 -93 -53 -113 -60 -171 -63 -46
-3 -75 1 -95 11 -18 9 -36 12 -44 7 -8 -4 -35 -11 -59 -15 -35 -6 -42 -5 -36
6 42 72 161 225 294 379 107 124 112 134 105 201 -8 68 13 155 59 247 40 80
61 94 189 127 110 29 215 32 264 9z m1831 -53 c54 -11 126 -32 161 -45 89 -35
240 -132 257 -166 23 -45 53 -163 65 -262 l12 -93 -45 -127 c-25 -71 -42 -128
-37 -128 33 0 93 -509 106 -913 l7 -197 -44 -38 c-24 -20 -118 -106 -210 -190
l-166 -153 -211 -115 c-117 -63 -217 -114 -222 -114 -6 0 -10 9 -10 20 0 24 5
27 215 140 157 84 160 87 369 279 l211 194 3 56 c4 65 -12 128 -46 191 -54 97
-61 118 -67 192 l-7 76 46 20 c60 27 61 45 1 28 -41 -13 -45 -12 -45 3 0 9 14
34 31 54 l32 38 -12 72 c-19 117 -28 139 -81 196 -37 40 -47 57 -37 64 7 5 3
6 -13 2 -252 -62 -283 -67 -412 -63 -71 3 -128 2 -128 -1 0 -16 58 -243 64
-248 3 -4 31 1 62 11 76 24 79 14 4 -14 -33 -12 -60 -25 -60 -28 0 -19 26 -72
35 -72 7 0 34 7 61 15 76 23 87 16 14 -9 -68 -24 -80 -39 -57 -70 13 -17 19
-18 81 -7 38 7 70 10 73 8 2 -3 -26 -13 -62 -22 -36 -10 -65 -22 -65 -27 0 -5
11 -31 25 -58 23 -46 21 -71 -5 -55 -23 14 -125 238 -165 360 -60 185 -70 232
-56 259 10 17 8 34 -8 86 -28 90 -28 93 13 73 28 -13 36 -25 46 -62 24 -93 26
-96 61 -108 81 -28 277 -2 459 60 77 28 112 51 104 72 -3 7 8 53 25 101 16 49
33 107 36 129 4 22 9 48 11 57 5 15 -3 14 -46 -9 -75 -39 -239 -44 -390 -13
-167 34 -263 85 -394 212 l-107 103 16 45 c31 87 103 168 186 205 44 20 177
14 316 -14z m578 -41 c3 -5 1 -10 -4 -10 -6 0 -11 5 -11 10 0 6 2 10 4 10 3 0
8 -4 11 -10z m-3485 -200 c0 -5 -4 -10 -10 -10 -5 0 -10 5 -10 10 0 6 5 10 10
10 6 0 10 -4 10 -10z m3680 -128 c0 -24 -8 -32 -26 -25 -22 8 -17 43 6 43 13
0 20 -7 20 -18z m-3615 -172 c-5 -8 -11 -8 -17 -2 -6 6 -7 16 -3 22 5 8 11 8
17 2 6 -6 7 -16 3 -22z m-682 -76 c9 -10 -4 -34 -18 -34 -17 0 -28 17 -20 30
7 11 28 13 38 4z m4217 -134 c0 -5 -4 -10 -10 -10 -5 0 -10 5 -10 10 0 6 5 10
10 10 6 0 10 -4 10 -10z m-4602 -64 c5 -24 -10 -38 -31 -30 -17 6 -23 35 -10
48 12 12 38 1 41 -18z m4608 -37 c8 -14 -18 -31 -30 -19 -9 9 0 30 14 30 5 0
12 -5 16 -11z m350 -30 c10 -17 -13 -36 -27 -22 -12 12 -4 33 11 33 5 0 12 -5
16 -11z m-3628 -185 c105 -150 123 -187 111 -227 -11 -39 -21 -48 -18 -17 1
14 1 35 1 48 -2 20 -5 21 -22 12 -11 -6 -46 -44 -78 -84 -56 -71 -59 -73 -83
-60 -29 16 -91 18 -139 4 -30 -9 -37 -7 -60 14 -29 27 -61 45 -103 57 -27 8
-35 4 -73 -31 -24 -22 -50 -40 -57 -40 -8 0 -58 -29 -112 -65 -54 -36 -100
-63 -102 -61 -2 2 34 93 80 202 46 110 87 209 91 221 6 19 30 30 134 63 108
34 221 65 307 83 11 3 25 4 30 3 6 -1 47 -56 93 -122z m-740 83 c2 -12 -3 -17
-17 -17 -12 0 -21 6 -21 13 0 31 32 34 38 4z m3640 -29 c7 -7 12 -15 12 -19 0
-10 -117 -49 -124 -41 -3 3 -6 18 -6 33 0 21 6 29 23 32 45 9 83 7 95 -5z
m-1981 -104 c13 -21 48 -114 78 -206 50 -148 61 -171 94 -201 l37 -34 180 -11
c425 -28 416 -28 468 47 38 54 76 77 76 46 0 -21 -55 -128 -73 -143 -11 -10
-76 -12 -251 -10 -169 2 -235 0 -232 -8 2 -6 31 -49 64 -95 65 -91 91 -156 67
-166 -11 -4 -13 -24 -9 -96 8 -141 6 -144 -114 -192 l-103 -40 -77 -115 c-67
-99 -82 -116 -114 -125 -20 -5 -48 -21 -62 -34 -53 -50 -25 6 93 184 47 71 92
135 99 140 7 6 60 30 118 54 l105 43 -7 99 c-5 69 -3 103 5 112 9 11 3 26 -26
68 -79 115 -103 154 -103 170 0 14 -14 18 -72 24 -64 7 -75 11 -110 44 -33 31
-42 50 -68 141 -27 97 -88 289 -106 334 -14 35 20 12 43 -30z m2012 -16 c14
-61 14 -103 -1 -116 -10 -8 -14 -2 -15 26 -1 21 -9 60 -16 89 -10 37 -11 54
-3 56 16 6 22 -3 35 -55z m404 -102 c8 -19 -15 -37 -32 -26 -17 10 -7 40 13
40 7 0 16 -6 19 -14z m-4205 -109 c2 -12 -3 -17 -17 -17 -12 0 -21 6 -21 13 0
31 32 34 38 4z m522 -45 c14 -9 74 -68 134 -130 l110 -112 -142 0 c-78 0 -142
2 -142 3 0 13 42 123 57 148 17 30 17 31 -1 45 -11 8 -28 14 -38 14 -15 0 -17
-4 -9 -19 8 -14 0 -49 -33 -147 -24 -71 -51 -145 -59 -164 l-15 -35 -8 40
c-14 64 -6 169 16 227 24 63 25 78 5 78 -24 0 -17 13 23 42 44 31 68 34 102
10z m223 -44 c39 -20 119 -92 133 -120 18 -34 32 -204 16 -194 -6 3 -18 32
-27 64 -18 59 -50 98 -169 200 -48 41 -48 42 -25 51 33 13 47 13 72 -1z m-383
-30 c0 -7 -7 -35 -15 -62 -8 -27 -15 -86 -15 -132 0 -45 -5 -95 -10 -110 -8
-21 -8 -29 2 -36 10 -6 10 -10 -2 -17 -22 -15 -36 3 -53 67 -26 94 -26 191 -1
217 13 12 14 18 4 31 -15 17 -14 19 30 38 43 19 60 20 60 4z m-135 -79 c-12
-38 -7 -161 9 -238 9 -41 14 -77 11 -79 -24 -24 -111 140 -121 230 l-7 56 49
26 c60 31 67 32 59 5z m3429 -45 c15 -6 172 -198 209 -256 36 -57 -2 -25 -76
65 -42 50 -89 105 -104 122 l-28 30 -6 -82 c-8 -101 -28 -143 -118 -249 -60
-71 -217 -204 -240 -204 -5 0 -11 8 -13 18 -3 10 -36 39 -74 65 -62 41 -71 44
-84 31 -13 -14 -11 -19 20 -45 19 -17 47 -38 63 -47 15 -9 27 -22 27 -29 0
-13 -155 -143 -170 -143 -5 0 -42 24 -83 53 -41 28 -83 57 -93 63 -19 11 -24
7 144 136 54 42 68 60 113 150 59 118 143 259 168 282 29 26 299 57 345 40z
m-1879 -44 c0 -18 -33 -26 -47 -12 -6 6 -7 15 -3 22 10 16 50 8 50 -10z m-982
-63 c47 -61 112 -239 122 -332 6 -55 14 -108 21 -142 l4 -23 -195 0 c-193 0
-196 0 -205 23 -5 12 -32 104 -59 204 l-50 181 21 63 21 62 151 -5 c147 -5
151 -6 169 -31z m327 -47 c0 -5 -4 -10 -10 -10 -5 0 -10 5 -10 10 0 6 5 10 10
10 6 0 10 -4 10 -10z m-685 -272 c30 -95 51 -175 47 -179 -4 -3 -50 -14 -102
-24 -158 -29 -305 -53 -307 -51 -3 3 63 245 76 279 6 15 14 27 19 27 5 0 51
27 102 60 51 33 97 60 101 60 5 0 33 -77 64 -172z m2460 -253 c108 -62 152
-106 161 -161 14 -95 -20 -136 -124 -149 -33 -4 -82 -20 -115 -38 -53 -28 -59
-29 -74 -14 -20 20 -12 32 60 89 37 29 55 36 73 32 13 -3 24 -3 24 2 0 12 -32
44 -45 44 -6 0 -50 -31 -97 -69 -83 -67 -86 -68 -113 -53 l-28 14 74 69 c49
45 82 68 99 69 l25 0 -29 28 c-19 18 -30 23 -33 15 -2 -7 -41 -43 -85 -79
l-80 -67 -25 25 -25 25 33 38 c18 20 57 50 86 67 29 16 53 33 53 37 0 4 -11
13 -25 19 -22 10 -27 9 -38 -9 -13 -22 -139 -119 -154 -119 -5 0 -16 11 -23
25 -17 32 -7 44 96 111 102 65 122 76 159 85 63 15 90 9 170 -36z m-2086 25
c63 -6 117 -12 119 -14 5 -5 -46 -243 -58 -272 -7 -17 -20 -22 -62 -27 -29 -2
-104 -13 -165 -23 -62 -9 -115 -16 -117 -13 -2 2 4 84 12 182 l15 177 71 0
c39 0 122 -5 185 -10z m-304 -57 c-22 -186 -34 -266 -41 -273 -10 -10 -114 59
-273 182 l-101 77 38 6 c20 4 102 19 182 34 80 16 158 29 173 30 l28 1 -6 -57z
m1856 22 c-1 -19 -121 -196 -136 -202 -33 -12 -24 8 45 112 62 93 93 123 91
90z m-1306 -42 c123 -84 305 -215 311 -224 3 -5 -3 -12 -13 -15 -28 -8 -130
-59 -218 -109 -44 -25 -82 -45 -85 -45 -3 0 -36 30 -73 66 -44 43 -66 72 -63
83 3 9 17 78 32 154 15 75 30 137 33 137 3 0 38 -21 76 -47z m450 -23 c3 -5 1
-10 -4 -10 -6 0 -11 5 -11 10 0 6 2 10 4 10 3 0 8 -4 11 -10z m655 -176 c85
-3 161 -9 168 -13 9 -5 -1 -23 -35 -62 -26 -30 -99 -116 -162 -192 -63 -75
-118 -137 -123 -137 -10 0 -352 -144 -380 -160 -10 -6 -18 -8 -18 -5 0 3 37
58 82 123 46 64 126 182 179 262 80 120 94 146 80 152 -40 16 -49 9 -77 -64
-35 -94 -79 -159 -245 -365 -173 -213 -190 -227 -305 -247 -49 -9 -102 -16
-119 -16 -33 0 -80 31 -74 48 9 24 614 588 704 656 48 36 52 38 110 32 33 -3
130 -8 215 -12z m245 -134 c7 0 20 -11 28 -24 9 -13 50 -41 92 -62 l75 -38 58
18 c31 10 72 26 90 37 l33 19 -18 -30 c-39 -66 -64 -80 -209 -117 -215 -54
-451 -101 -464 -93 -9 5 29 57 121 167 l134 160 24 -19 c13 -10 29 -18 36 -18z
m824 -107 c-73 -76 -137 -139 -140 -141 -4 -2 -9 3 -12 10 -65 159 -97 242
-94 244 4 5 371 31 376 27 2 -2 -56 -65 -130 -140z m-281 50 c11 -32 36 -95
56 -140 19 -46 32 -83 29 -83 -6 0 -244 119 -251 125 -13 12 110 155 134 155
6 0 21 -26 32 -57z m-24 -229 l89 -46 -44 -46 c-24 -26 -96 -100 -159 -165
-63 -65 -116 -122 -118 -127 -5 -15 -45 -12 -170 13 l-113 23 142 204 c78 113
151 215 162 227 l20 23 51 -30 c28 -17 91 -51 140 -76z m-817 -112 c169 -204
203 -247 203 -255 0 -5 -10 -7 -22 -4 -32 8 -419 63 -574 82 -155 19 -234 34
-234 44 0 11 521 221 545 220 6 0 42 -39 82 -87z m-299 -479 l184 -178 -114
-67 -113 -67 -58 58 -58 58 -90 243 c-49 134 -89 250 -89 258 0 17 94 -68 338
-305z m-343 207 c12 -41 43 -135 68 -208 l47 -134 -68 74 c-37 40 -114 122
-172 181 -58 60 -106 112 -108 117 -2 5 14 12 35 15 21 4 63 13 93 20 30 7 61
12 69 11 8 0 23 -32 36 -76z m1052 -31 l113 -22 -158 -166 c-132 -139 -158
-162 -160 -143 -2 12 6 87 18 165 31 207 28 200 53 194 12 -3 73 -15 134 -28z
m-236 -165 c-11 -55 -23 -125 -27 -156 -4 -32 -7 -58 -8 -58 -15 0 -170 31
-174 34 -2 3 46 68 109 145 62 77 114 139 116 137 2 -2 -5 -48 -16 -102z
m-281 -258 c0 -2 9 -48 20 -101 25 -122 25 -119 -7 -155 l-28 -31 -90 92 c-49
50 -85 93 -78 96 6 2 47 26 90 52 74 47 93 56 93 47z"/>
<path d="M5444 7448 c-82 -89 -255 -331 -298 -417 -39 -77 -55 -146 -57 -254
-2 -56 -6 -118 -10 -137 l-6 -35 -3 33 c-1 17 -3 35 -4 40 -1 4 -5 50 -9 102
-10 127 -18 204 -23 209 -4 5 -286 -37 -292 -44 -3 -3 7 -40 22 -83 63 -174
53 -173 -30 2 -32 69 -62 126 -66 126 -5 0 -8 -16 -8 -34 0 -43 140 -327 200
-407 22 -29 47 -74 56 -99 9 -25 22 -59 29 -77 13 -30 6 -26 -102 53 -64 46
-118 82 -121 79 -7 -7 19 -55 31 -55 13 0 177 -121 177 -131 0 -4 -18 -13 -41
-19 -47 -13 -48 -12 -99 75 -41 69 -37 50 7 -40 31 -63 41 -75 58 -71 11 2 41
8 68 11 38 6 47 4 47 -8 0 -8 -7 -18 -15 -21 -18 -6 0 -42 78 -161 22 -33 61
-112 87 -175 l46 -115 99 3 c55 2 102 5 104 8 3 2 -6 69 -18 148 -18 115 -20
148 -10 163 13 22 5 158 -11 183 -6 11 -35 17 -92 20 l-83 5 -17 90 c-21 108
-22 167 -5 183 8 9 14 62 18 160 5 132 8 154 33 212 54 127 193 355 282 467
19 23 34 44 34 47 0 16 -21 2 -56 -36z"/>
<path d="M5761 7143 c-13 -27 -54 -116 -92 -200 l-67 -152 24 -148 c13 -81 24
-158 24 -170 0 -13 -19 -58 -43 -100 -79 -144 -96 -197 -102 -335 l-6 -123 36
40 c21 22 92 117 160 211 107 151 123 178 129 223 9 71 22 101 43 101 32 0 42
15 66 96 25 86 25 76 -15 226 l-20 78 -30 -37 c-18 -23 -27 -45 -24 -58 2 -11
14 -69 26 -130 12 -60 27 -116 32 -122 8 -10 6 -13 -5 -13 -14 0 -37 77 -62
210 -13 70 -13 70 -66 70 -27 0 -49 2 -49 5 0 15 104 145 116 145 8 0 14 8 14
18 -1 36 -46 206 -56 209 -5 2 -20 -18 -33 -44z"/>
<path d="M5413 6565 c-84 -62 -160 -118 -169 -123 -12 -7 -14 -17 -9 -45 8
-42 21 -49 67 -37 18 4 71 11 118 15 109 8 115 10 138 48 17 28 19 43 12 120
-4 49 -5 100 -2 113 2 13 3 24 1 24 -2 -1 -73 -52 -156 -115z m114 -22 c12
-50 2 -85 -31 -112 -12 -10 -147 -28 -223 -31 -27 0 -11 27 30 53 23 15 76 52
117 82 41 30 80 55 86 55 6 0 15 -21 21 -47z"/>
<path d="M5565 6409 c-4 -6 -5 -12 -2 -15 2 -3 7 2 10 11 7 17 1 20 -8 4z"/>
<path d="M4204 5535 c-3 -8 4 -30 16 -50 13 -21 19 -42 15 -54 -9 -30 -183
-191 -206 -191 -11 0 -29 5 -40 11 -17 8 -23 7 -35 -8 -7 -10 -14 -21 -14 -25
0 -14 110 -8 138 6 36 19 165 153 186 193 17 35 21 63 8 63 -5 0 -17 16 -28
35 -20 38 -31 43 -40 20z"/>
<path d="M4097 5426 c-7 -18 1 -26 25 -26 21 0 23 11 6 28 -16 16 -25 15 -31
-2z"/>
</g>
</svg>
